<defs>
<font horiz-adv-x="385" ><font-face
    font-family="lobstertwo-bold-italic"
    units-per-em="1000"
    panose-1="2 0 5 6 0 0 0 2 0 3"
    ascent="1000"
    descent="-250"
    alphabetic="0" />
<missing-glyph />
<glyph unicode=" " glyph-name="space" horiz-adv-x="215" />
<glyph unicode="!" glyph-name="exclam" horiz-adv-x="270" d="M156 231H71L142 700H286L156 231ZM166 113T166 80T143 24T87 0T31 23T7 80T30 136T87 159T143 136Z" />
<glyph unicode="&quot;" glyph-name="quotedbl" horiz-adv-x="353" d="M93 561L154 750H259L168 561H93ZM250 561L311 750H416L325 561H250Z" />
<glyph unicode="#" glyph-name="numbersign" horiz-adv-x="542" d="M261 -27L286 111H168L138 -27H81L106 111H-1L20 213H124L145 326H43L64 428H163L215 718H303L238 428H343L395 718H483L418 428H522L502 326H396L371 213H478L458 111H348L318 -27H261ZM216
326L191 213H304L325 326H216Z" />
<glyph unicode="$" glyph-name="dollar" horiz-adv-x="388" d="M109 -27L133 108Q86 111 55 138T23 218Q23 261 44 284T97 308Q115 308 126 301T138 283Q117 280 108 259T98 214Q98 169 140 148L176 344Q169 350 148 367T117 392T95 415T76 447T70 481Q70 534
117 572T224 612L243 718H301L276 609Q316 602 339 583T363 523Q363 492 350 471T314 450Q295 450 276 473Q300 487 300 522Q300 555 268 569L232 408Q291 367 318 334T345 252Q345 185 294 147T165 107L136 -27H109ZM240 232Q240 274 211 310L174 144Q208 148
224 173T240 232ZM165 501Q165 467 193 439L217 574Q190 568 178 547T165 501Z" />
<glyph unicode="%" glyph-name="percent" horiz-adv-x="623" d="M541 750L155 0H83L469 750H541ZM231 702Q313 702 313 589Q313 515 272 445T165 374Q110 374 90 402T69 488Q69 579 113 640T231 702ZM143 519Q141 495 141 476Q141 411 168 411Q206 411 229 468T253
604Q253 667 228 667T176 627T143 519ZM479 328Q523 328 547 299T571 215Q571 181 562 146T536 76T486 21T413 0Q358 0 338 28T317 114Q317 205 361 266T479 328ZM386 145Q384 121 384 102Q384 37 411 37Q449 37 471 90T493 223Q493 291 465 291Q441 291 417 252T386
145Z" />
<glyph unicode="&amp;" glyph-name="ampersand" horiz-adv-x="673" d="M678 413H684Q684 370 637 327T529 274Q500 148 408 65T193 -18Q102 -18 56 32T9 158Q9 242 60 319T194 417Q133 461 133 537Q133 618 196 685T352 752Q414 752 454 719T495 627Q495 583 473
553T421 523Q394 523 374 550Q392 556 405 583T418 637Q418 666 402 679T363 693Q320 693 291 650T261 552Q261 505 286 468T362 418Q286 401 235 327T183 179Q183 134 206 106T278 78Q360 78 411 125T493 272Q481 272 455 275T415 278Q350 278 321 233L314 234Q329
297 380 336T507 375Q521 375 546 373T583 370Q654 370 678 413Z" />
<glyph unicode="&apos;" glyph-name="quotesingle" horiz-adv-x="196" d="M93 561L154 750H259L168 561H93Z" />
<glyph unicode="(" glyph-name="parenleft" horiz-adv-x="281" d="M338 750L351 710Q279 674 217 572T120 336T85 73Q85 -114 158 -221L125 -250Q12 -125 12 100Q12 231 51 362T166 598T338 750Z" />
<glyph unicode=")" glyph-name="parenright" horiz-adv-x="281" d="M-86 -250L-99 -210Q11 -155 89 36T167 427Q167 614 94 721L127 750Q240 625 240 400Q240 268 201 138T86 -98T-86 -250Z" />
<glyph unicode="*" glyph-name="asterisk" horiz-adv-x="412" d="M225 752H289V617L396 679L426 627L317 564L426 501L396 449L289 511V376H225V511L118 449L88 501L197 564L88 627L118 679L225 617V752Z" />
<glyph unicode="+" glyph-name="plus" horiz-adv-x="442" d="M304 439L277 317H404L381 205H253L226 82H113L140 205H12L36 317H164L191 439H304Z" />
<glyph unicode="," glyph-name="comma" horiz-adv-x="232" d="M-9 75Q-9 108 14 131T70 155Q102 155 120 134T138 79Q138 32 103 -26T8 -126Q-1 -120 -1 -109Q-1 -91 22 -61T45 -12Q45 -2 32 9T5 36T-9 75Z" />
<glyph unicode="-" glyph-name="hyphen" horiz-adv-x="321" d="M257 301L240 222H39L57 301H257Z" />
<glyph unicode="." glyph-name="period" horiz-adv-x="240" d="M-9 42T-9 75T14 131T70 155T126 132T150 75T127 19T70 -4T14 19Z" />
<glyph unicode="/" glyph-name="slash" horiz-adv-x="217" d="M236 750L24 -250H-48L164 750H236Z" />
<glyph unicode="0" glyph-name="zero" horiz-adv-x="598" d="M389 750Q574 750 574 501Q574 418 555 333T496 170T389 43T235 -6Q180 -6 143 13T85 69T57 149T49 249Q49 462 143 606T389 750ZM201 220Q201 87 268 87Q318 87 359 157T421 334T443 556Q443 616 433
648T392 680Q341 680 297 613T227 439T201 220Z" />
<glyph unicode="1" glyph-name="one" horiz-adv-x="335" d="M348 748L189 0H45L171 598H76L94 670Q217 670 348 748Z" />
<glyph unicode="2" glyph-name="two" horiz-adv-x="529" d="M134 122Q158 122 221 113T320 104Q371 104 398 119T457 173Q458 157 458 129Q458 52 433 21T332 -11Q286 -11 214 7T91 25Q81 25 67 20T35 7T12 -3Q10 8 10 30Q10 88 44 146T126 255T222 356T305 470T339
600Q339 646 322 667T267 689Q197 689 197 617Q197 558 235 546Q198 512 159 512Q128 512 108 534T87 599Q87 660 137 704T293 749Q483 749 483 587Q483 523 453 466T377 365T282 282T188 201T122 121Q124 121 128 121T134 122Z" />
<glyph unicode="3" glyph-name="three" horiz-adv-x="540" d="M210 257Q162 257 142 228T122 162Q122 109 145 92T208 74Q265 74 301 127T337 250Q337 315 304 362T204 418Q284 440 329 494T375 606Q375 642 356 665T299 689T241 671T220 617Q220 593 229 572T258
546Q221 512 182 512Q151 512 131 535T110 597Q110 664 169 706T317 749T454 707T503 603Q503 551 468 501T366 417Q429 395 460 348T492 242Q492 149 412 72T210 -6Q181 -6 153 -1T90 21T33 74T11 165Q11 229 42 268T132 308Q199 308 210 257Z" />
<glyph unicode="4" glyph-name="four" horiz-adv-x="507" d="M252 270H10Q22 308 62 382T132 529T161 666Q161 695 149 750Q198 750 229 725T260 644Q260 597 239 549T177 438T123 349H269L351 730L499 750L413 349H477L457 270H396L339 0H195L252 270Z" />
<glyph unicode="5" glyph-name="five" horiz-adv-x="527" d="M499 749Q501 727 501 716Q501 664 474 632T386 600Q355 600 291 612T219 625L179 444Q244 475 304 475Q390 475 435 416T480 268Q480 154 407 74T192 -6Q14 -6 14 139Q14 211 53 246T144 281Q205 281
215 230Q124 220 124 148Q124 109 146 89T205 68Q267 68 301 124T336 252Q336 317 306 354T224 391Q164 391 75 335L157 734Q306 717 337 717Q418 717 499 749Z" />
<glyph unicode="6" glyph-name="six" horiz-adv-x="558" d="M274 302Q224 302 224 346Q224 388 266 425T374 463Q446 463 480 414T514 292Q514 174 437 84T227 -6Q122 -6 82 48T41 209Q41 343 82 464T206 668T398 750Q461 750 495 726T530 668Q530 642 513 619T465
596Q459 596 441 600Q459 616 459 642Q459 663 442 676T400 690Q341 690 288 615T206 434T177 227Q177 151 197 118T260 85Q307 85 340 120T386 199T399 286Q399 336 379 361T331 386Q305 386 288 368T271 323Q271 312 274 302Z" />
<glyph unicode="7" glyph-name="seven" horiz-adv-x="499" d="M578 732Q578 712 547 665T472 556T384 424T308 272T277 119Q277 76 294 7Q261 -9 231 -9Q129 -9 129 125Q129 178 159 240T234 358T322 465T396 559T427 626Q344 645 266 645Q151 645 145 568Q118
569 101 594T83 659Q83 711 114 730T201 749Q244 749 347 737T496 724Q539 724 578 732Z" />
<glyph unicode="8" glyph-name="eight" horiz-adv-x="555" d="M238 78Q286 78 326 131T366 243Q366 289 340 325T278 378Q222 355 190 299T157 188Q157 143 179 111T238 78ZM229 -6Q133 -6 77 51T20 189Q20 262 66 327T200 417Q115 466 115 553Q115 630 179 690T344
750Q428 750 477 708T527 604Q527 551 491 501T387 417Q446 398 477 354T508 255Q508 159 427 77T229 -6ZM299 451Q347 483 376 530T405 623Q405 655 390 677T344 699Q304 699 275 661T246 570Q246 495 299 451Z" />
<glyph unicode="9" glyph-name="nine" horiz-adv-x="556" d="M324 444Q348 430 348 396Q348 357 308 331T214 305Q142 305 106 356T70 484Q70 596 142 673T333 750Q443 750 489 693T536 522Q536 387 493 267T370 71T192 -5Q128 -5 97 23T65 94Q65 126 84 149T151
172Q137 158 137 138Q137 117 151 100T197 82Q204 82 212 83T239 92T275 115T313 159T349 231T378 338T397 487Q399 525 399 540Q399 689 319 689Q261 689 223 627T184 484Q184 375 245 375Q269 375 290 393T324 444Z" />
<glyph unicode=":" glyph-name="colon" horiz-adv-x="275" d="M20 102T20 135T43 191T99 215T155 192T179 135T156 79T99 56T43 79ZM70 342T70 375T93 431T149 455T205 432T229 375T206 319T149 296T93 319Z" />
<glyph unicode=";" glyph-name="semicolon" horiz-adv-x="269" d="M59 298T59 331T82 387T138 411T194 388T218 331T195 275T138 252T82 275ZM11 91Q11 124 34 147T90 171Q122 171 140 150T158 95Q158 48 123 -10T28 -110Q19 -104 19 -93Q19 -75 42 -45T65 4Q65
14 52 25T25 52T11 91Z" />
<glyph unicode="&lt;" glyph-name="less" horiz-adv-x="358" d="M323 429L313 374L72 254L266 158L254 101L7 238L16 279L323 429Z" />
<glyph unicode="=" glyph-name="equal" horiz-adv-x="500" d="M456 428L433 316H64L88 428H456ZM412 213L389 101H20L44 213H412Z" />
<glyph unicode="&gt;" glyph-name="greater" horiz-adv-x="362" d="M71 374L80 429L326 279L315 225L11 101L25 158L265 254L71 374Z" />
<glyph unicode="?" glyph-name="question" horiz-adv-x="420" d="M443 572Q443 524 423 486T372 420T309 366T246 306T203 232H137Q137 270 156 305T203 368T257 426T304 492T324 569Q324 610 307 628T265 646Q234 646 209 623T184 564Q184 543 193 523T222 497Q196
455 149 455Q118 455 96 477T73 539Q73 600 126 650T288 700Q374 700 408 667T443 572ZM225 113T225 80T202 24T146 0T90 23T66 80T89 136T146 159T202 136Z" />
<glyph unicode="@" glyph-name="at" horiz-adv-x="549" d="M220 -38Q182 -38 148 -28T83 5T34 68T16 164Q16 327 116 442T357 557Q384 557 408 552T458 531T499 483T515 400Q515 302 462 219T345 136Q312 136 300 162Q272 120 237 120Q178 120 178 208Q178 254
193 304T239 393T309 432Q335 432 348 415L352 430L407 424L362 232Q358 216 358 209Q358 190 370 190Q393 190 425 259T457 391Q457 439 433 471T354 504Q303 504 258 474T182 396T134 292T116 184Q116 43 249 43Q345 43 401 114Q424 104 424 71Q424 23 368 -7T220
-38ZM297 216L340 383Q332 393 319 393Q287 393 262 332T236 224Q236 179 257 179Q270 179 294 198Q294 207 297 216Z" />
<glyph unicode="A" glyph-name="A" horiz-adv-x="603" d="M487 0H343L420 363Q354 393 286 399Q229 276 193 149T156 -54Q156 -93 170 -114Q148 -114 135 -113T100 -107T67 -91T46 -59T36 -8Q36 59 76 171T183 399Q83 393 66 347Q70 347 74 337T79 316Q79 298
63 288T23 277Q-4 277 -21 292T-39 335Q-39 386 19 422T163 458Q186 458 217 455Q299 586 391 668T567 750Q610 750 644 736L487 0ZM429 407L487 679Q403 634 307 442Q377 428 429 407Z" />
<glyph unicode="B" glyph-name="B" horiz-adv-x="681" d="M281 636L429 656L382 434H388Q446 434 489 485T532 596Q532 643 500 673T400 704Q302 704 226 640T150 461Q150 444 152 431T156 413T161 401T164 393Q57 393 57 485Q57 588 167 669T420 750Q524 750
578 704T633 591Q633 545 607 502T533 432Q593 420 622 376T651 271Q651 231 640 185T605 92T536 14T432 -17Q333 -17 333 57Q333 82 346 115Q381 79 413 79Q447 79 470 109T503 178T512 259Q512 386 417 386Q398 386 371 383L289 0H145L281 636Z" />
<glyph unicode="C" glyph-name="C" horiz-adv-x="507" d="M526 180L549 170Q510 82 428 33T251 -16Q45 -16 45 229Q45 288 55 353T92 490T157 619T258 713T398 750Q471 750 516 717T561 614Q561 524 491 524Q456 524 434 550Q452 559 466 586T480 641T466 685T423
703Q368 703 318 629T239 447T211 239Q211 159 236 117T330 75Q386 75 438 103T526 180Z" />
<glyph unicode="D" glyph-name="D" horiz-adv-x="708" d="M281 636L429 656L309 95Q336 75 366 75Q422 75 467 144T535 310T558 502Q558 612 521 658T404 704Q297 704 224 638T150 461Q150 445 152 432T156 413T161 401T164 393Q57 393 57 486Q57 589 167 669T425
750Q520 750 582 710T670 607T696 456Q696 347 658 239T555 59T419 -13Q359 -13 297 40L289 0H145L281 636Z" />
<glyph unicode="E" glyph-name="E" horiz-adv-x="449" d="M467 180L490 170Q452 84 371 33T197 -18Q106 -18 60 32T13 158Q13 242 64 319T198 417Q137 461 137 537Q137 618 200 685T356 752Q418 752 458 719T499 627Q499 583 477 553T425 523Q398 523 378 550Q396
556 409 583T422 637Q422 666 406 679T367 693Q324 693 295 650T265 552Q265 505 290 468T366 418Q290 401 239 327T187 179Q187 134 210 106T282 78Q332 78 387 105T467 180Z" />
<glyph unicode="F" glyph-name="F" horiz-adv-x="559" d="M383 450H529L513 376H367L286 0H142L286 668Q156 663 156 470Q156 424 170 393Q115 393 89 416T63 494Q63 599 147 674T390 750Q425 750 480 744T569 738Q623 738 660 750Q644 678 617 654T549 630Q513
630 425 648L383 450Z" />
<glyph unicode="G" glyph-name="G" horiz-adv-x="591" d="M459 419L577 418L495 42Q469 -80 412 -143T255 -207Q173 -207 137 -168T100 -70Q100 -12 133 28T234 68Q320 68 320 1Q320 -17 314 -39Q295 -13 256 -13Q221 -13 203 -36T184 -90Q184 -118 201 -137T252
-157Q284 -157 307 -131T347 -34L397 187Q337 109 245 109Q158 109 104 175T50 357Q50 460 92 548T218 693T409 750Q489 750 543 717T597 612Q597 573 580 549T527 524Q480 524 458 550Q476 555 489 583T502 635Q502 643 500 651T492 670T471 689T432 697Q371 697
318 646T234 517T204 359Q204 284 231 240T299 196Q344 196 388 252T459 419Z" />
<glyph unicode="H" glyph-name="H" horiz-adv-x="695" d="M447 748L383 450H530L594 748H738L579 0H435L515 376H368L288 0H144L289 680Q222 653 186 597T149 462Q149 445 151 432T155 413T160 401T163 393Q56 393 56 485Q56 553 109 615T243 713T406 750Q421
750 447 748Z" />
<glyph unicode="I" glyph-name="I" horiz-adv-x="404" d="M447 748L288 0H144L289 679Q223 652 186 596T149 462Q149 445 151 432T155 413T160 401T163 393Q56 393 56 485Q56 553 109 615T243 713T406 750Q421 750 447 748Z" />
<glyph unicode="J" glyph-name="J" horiz-adv-x="445" d="M448 750H488L338 40Q286 -207 88 -207Q6 -207 -33 -170T-73 -68Q-73 -10 -41 29T61 68Q147 68 147 1Q147 -17 141 -39Q125 -13 82 -13Q48 -13 30 -35T11 -88Q11 -120 31 -138T84 -157Q116 -157 137 -132T174
-34L331 680Q264 652 227 596T190 461Q190 444 192 431T196 413T201 401T204 393Q97 393 97 485Q97 553 150 615T284 713T448 750Z" />
<glyph unicode="K" glyph-name="K" horiz-adv-x="647" d="M447 748L379 429L621 745H714L432 425Q439 425 450 425T465 426Q537 426 566 399T595 320Q595 276 571 186T546 68Q546 15 585 0Q526 -17 486 -17Q408 -17 408 50Q408 82 434 178T461 313Q461 381 402
381Q392 381 368 377L288 0H144L289 680Q222 653 186 597T149 462Q149 445 151 432T155 413T160 401T163 393Q56 393 56 485Q56 553 109 615T243 713T406 750Q421 750 447 748Z" />
<glyph unicode="L" glyph-name="L" horiz-adv-x="455" d="M445 738L291 20Q331 11 390 -22T511 -82T628 -109Q672 -109 711 -93Q693 -250 600 -250Q565 -250 523 -227T440 -170T355 -103T260 -47T161 -23Q146 -23 138 -24L287 669Q221 642 184 586T147 452Q147
414 161 383Q54 383 54 475Q54 543 107 605T241 703T404 740Q419 740 445 738Z" />
<glyph unicode="M" glyph-name="M" horiz-adv-x="790" d="M689 0H545L609 449L421 0H284L304 451L137 0H57L311 687Q236 662 194 604T152 462Q152 446 154 433T158 413T163 401T166 393Q59 393 59 483Q59 579 160 664T375 750Q416 750 453 736L430 209L650 736H794L689
0Z" />
<glyph unicode="N" glyph-name="N" horiz-adv-x="723" d="M673 748H770L600 0H462L346 496L232 0H137L291 681Q154 627 154 464Q154 450 155 439T158 420T161 408T165 399T168 393Q114 393 88 415T61 490Q61 536 82 581T140 665T237 726T367 750Q407 750 437 736L554
205L673 748Z" />
<glyph unicode="O" glyph-name="O" horiz-adv-x="697" d="M469 656Q403 616 349 464T294 191Q294 83 354 83Q402 83 450 151T530 327T561 539Q561 628 532 666T428 704Q314 704 230 633T145 448Q145 411 155 393Q54 393 54 477Q54 545 110 609T260 711T452 750Q694
750 694 497Q694 436 681 370T639 236T569 115T465 28T328 -6Q146 -6 146 195Q146 259 163 337T213 489T299 614T418 664Q445 664 469 656Z" />
<glyph unicode="P" glyph-name="P" horiz-adv-x="602" d="M281 636L429 656L358 322Q431 328 482 405T533 572Q533 704 392 704Q289 704 220 640T150 462Q150 421 164 393Q57 393 57 485Q57 589 168 669T415 750Q525 750 584 693T644 552Q644 451 564 368T355
285H350L289 0H145L281 636Z" />
<glyph unicode="Q" glyph-name="Q" horiz-adv-x="698" d="M469 656Q403 616 349 464T294 191Q294 161 296 148Q332 157 358 157Q404 157 439 130Q490 195 525 310T561 539Q561 628 532 666T428 704Q314 704 230 633T145 448Q145 423 155 393Q54 393 54 477Q54
545 110 609T260 711T452 750Q694 750 694 497Q694 376 645 249T504 52Q531 12 557 -8T626 -29Q634 -29 650 -27Q631 -76 607 -94T545 -113Q514 -113 492 -104T456 -75T435 -37T419 8Q375 -6 328 -6Q146 -6 146 195Q146 259 163 337T213 489T299 614T418 664Q445
664 469 656ZM354 75Q373 75 390 85Q370 120 333 120Q319 120 304 116Q318 75 354 75Z" />
<glyph unicode="R" glyph-name="R" horiz-adv-x="656" d="M281 636L429 656L380 425H388Q447 425 488 481T530 602Q530 704 404 704Q297 704 224 638T150 461Q150 445 152 432T156 413T161 401T164 393Q57 393 57 485Q57 588 167 669T417 750Q520 750 577 703T635
589Q635 542 606 495T526 419Q596 400 596 320Q596 276 572 186T547 68Q547 15 586 0Q526 -17 487 -17Q409 -17 409 50Q409 82 435 178T462 313Q462 381 403 381Q395 381 369 377L289 0H145L281 636Z" />
<glyph unicode="S" glyph-name="S" horiz-adv-x="526" d="M516 630Q516 586 494 558T434 529Q406 529 388 550Q408 562 420 586T433 636Q433 665 416 683T359 702Q317 702 292 679T267 612Q267 578 283 548T325 496T379 447T434 392T475 323T492 229Q492 110 410
46T211 -18Q118 -18 59 23T-1 151Q-1 227 44 271T146 315Q178 315 203 300T234 249Q187 249 151 225T115 152Q115 113 141 88T214 62Q266 62 297 96T329 192Q329 239 308 282T257 358T196 422T145 492T124 571Q124 648 190 699T355 750Q373 750 390 749T431 740T473
720T503 685T516 630Z" />
<glyph unicode="T" glyph-name="T" horiz-adv-x="674" d="M647 620Q594 620 495 642L357 0H213L355 662H344Q256 662 206 618T155 465Q155 446 156 432T160 413T165 401T169 392Q113 392 88 415T62 495Q62 545 81 588T139 669T248 727T408 749Q464 749 539 738T653
726Q723 726 775 747Q772 620 647 620Z" />
<glyph unicode="U" glyph-name="U" horiz-adv-x="770" d="M675 748H816L750 436Q729 336 711 272T665 150T604 61T520 11T403 -7Q298 -7 254 33T210 155Q210 182 213 213T228 294T244 367T268 466T292 560L325 692Q242 670 195 611T148 462Q148 424 162 393Q55
393 55 485Q55 554 108 615T249 713T433 750Q455 750 481 745Q465 687 445 611T414 496T390 407T370 329T357 270T348 219T346 179Q346 122 358 103T425 84Q457 84 476 93T518 139T560 246T608 439L675 748Z" />
<glyph unicode="V" glyph-name="V" horiz-adv-x="660" d="M446 748L455 133L665 745H735L457 0H313L297 683Q226 657 187 600T148 462Q148 446 150 433T154 413T159 401T162 393Q55 393 55 485Q55 553 108 615T242 713T405 750Q420 750 446 748Z" />
<glyph unicode="W" glyph-name="W" horiz-adv-x="1006" d="M446 748L455 133L665 745H792L801 133L1011 745H1081L803 0H659L647 509L457 0H313L297 683Q226 657 187 600T148 462Q148 445 150 432T154 413T159 401T162 393Q55 393 55 485Q55 553 108 615T242 713T405
750Q420 750 446 748Z" />
<glyph unicode="X" glyph-name="X" horiz-adv-x="670" d="M628 0H469L399 276L252 0H185L377 364L297 683Q226 657 187 600T148 462Q148 445 150 432T154 413T159 401T162 393Q55 393 55 485Q55 553 108 615T242 713T405 750Q420 750 446 748L512 477L640 745H705L532
392L628 0Z" />
<glyph unicode="Y" glyph-name="Y" horiz-adv-x="661" d="M487 0H327L393 308L297 683Q226 657 187 600T148 462Q148 445 150 432T154 413T159 401T162 393Q55 393 55 485Q55 553 108 615T242 713T405 750Q420 750 446 748L533 390L681 745H747L553 308L487 0Z" />
<glyph unicode="Z" glyph-name="Z" horiz-adv-x="535" d="M404 85Q386 85 386 116Q386 145 404 159T446 174Q472 174 484 157T497 116Q497 74 461 37T369 0H8L358 696Q349 696 318 697T268 698Q176 698 176 676Q193 676 193 644Q193 614 175 601T134 587Q108 587
96 604T83 646Q83 687 116 718T206 750H549L204 65Q216 65 249 64T300 63Q388 63 404 85Z" />
<glyph unicode="[" glyph-name="bracketleft" horiz-adv-x="298" d="M168 -188L155 -250H-48L164 750H367L354 688H243L57 -188H168Z" />
<glyph unicode="\" glyph-name="backslash" horiz-adv-x="526" d="M318 -250L106 750H178L390 -250H318Z" />
<glyph unicode="]" glyph-name="bracketright" horiz-adv-x="297" d="M100 688L113 750H316L104 -250H-99L-86 -188H25L211 688H100Z" />
<glyph unicode="^" glyph-name="asciicircum" horiz-adv-x="421" d="M343 561H311L251 641L94 561H50L262 750H283L343 561Z" />
<glyph unicode="_" glyph-name="underscore" horiz-adv-x="443" d="M347 79L330 0H-21L-3 79H347Z" />
<glyph unicode="`" glyph-name="grave" horiz-adv-x="201" d="M83 561L24 750H129L158 561H83Z" />
<glyph unicode="a" glyph-name="a" horiz-adv-x="526" d="M353 500H498L425 160Q421 143 421 128Q421 108 430 100T462 91Q517 91 543 179H585Q522 0 384 0Q343 0 318 22T286 87Q225 -6 137 -6Q80 -6 42 33T4 155Q4 208 20 267T67 380T148 469T261 505Q335 505
343 453L353 500ZM292 443Q252 443 219 394T169 282T152 169Q152 142 157 125T171 101T186 93T202 91Q226 91 251 114T285 179L333 405Q332 418 322 430T292 443Z" />
<glyph unicode="b" glyph-name="b" horiz-adv-x="444" d="M17 179L124 680L272 700L224 475Q273 505 306 505Q424 505 424 332Q424 294 416 252T388 163T339 79T260 18T150 -6Q82 -6 46 27T10 122Q10 150 17 179ZM323 336Q323 376 309 404T270 432Q226 432 211
414L156 160Q153 148 153 137Q153 91 206 91Q252 91 287 171T323 336Z" />
<glyph unicode="c" glyph-name="c" horiz-adv-x="384" d="M291 345Q308 382 308 415Q308 452 280 452Q247 452 216 402T166 285T148 163Q148 115 166 97T224 78Q278 78 317 103T401 179H435Q320 -6 160 -6Q4 -6 4 153Q4 201 18 257T62 371T146 467T273 505Q384
505 384 417Q384 381 369 357T331 333T291 345Z" />
<glyph unicode="d" glyph-name="d" horiz-adv-x="526" d="M392 680L540 700L425 160Q421 143 421 128Q421 108 430 100T462 91Q517 91 543 179H585Q522 0 384 0Q343 0 318 22T286 87Q225 -6 137 -6Q80 -6 42 33T4 155Q4 208 20 267T67 380T148 469T261 505Q336
505 343 452L392 680ZM292 443Q252 443 219 394T169 282T152 169Q152 142 157 125T171 101T186 93T202 91Q226 91 251 114T285 179L333 404Q333 417 323 430T292 443Z" />
<glyph unicode="e" glyph-name="e" horiz-adv-x="384" d="M152 162Q152 113 169 96T224 78Q278 78 317 103T401 179H435Q320 -6 160 -6Q4 -6 4 153Q4 190 12 233T40 326T90 414T168 479T274 505Q384 505 384 409Q384 326 316 267T154 202Q152 174 152 162ZM307
411Q307 452 282 452Q247 452 213 391T162 250Q220 254 263 302T307 411Z" />
<glyph unicode="f" glyph-name="f" horiz-adv-x="267" d="M399 600H352Q354 620 354 627Q354 643 343 652T316 661Q295 661 275 643T246 579L229 500H302L295 460H221L106 -80Q70 -250 -73 -250Q-121 -250 -156 -220T-191 -142Q-191 -109 -179 -85T-140 -43T-88
-16T-19 8L102 579Q138 749 284 749Q332 749 367 719T402 641Q402 618 399 600ZM-136 -128Q-136 -139 -124 -150T-96 -161Q-56 -161 -39 -83L-26 -25Q-79 -43 -107 -66T-136 -128Z" />
<glyph unicode="g" glyph-name="g" horiz-adv-x="507" d="M353 500H497L398 36Q446 53 475 84T524 179H566Q552 132 532 97T486 42T438 10T389 -8L374 -80Q338 -250 194 -250Q146 -250 114 -225T82 -153Q82 -54 245 -4L264 81Q210 14 137 14Q80 14 42 53T4 175Q4
225 20 280T67 387T148 471T261 505Q335 505 343 453L353 500ZM292 443Q252 443 219 397T169 294T152 189Q152 162 157 145T171 121T186 113T202 111Q227 111 253 134T289 199L333 406Q332 419 322 431T292 443ZM137 -139Q137 -151 146 -161T171 -172Q188 -172
204 -149T229 -83L235 -54Q137 -91 137 -139Z" />
<glyph unicode="h" glyph-name="h" horiz-adv-x="505" d="M305 362Q305 413 269 413Q219 413 191 321L123 0H-21L124 680L272 700L218 448Q267 504 335 504Q386 504 416 476T446 391Q446 347 422 253T398 133Q398 91 438 91Q468 91 485 112T522 179H564Q501 -6
378 -6Q317 -6 289 26T260 107Q260 142 282 236T305 362Z" />
<glyph unicode="i" glyph-name="i" horiz-adv-x="267" d="M105 600T105 633T128 689T184 713T240 690T264 633T241 577T184 554T128 577ZM85 500H229L157 160Q153 143 153 128Q153 108 162 100T194 91Q223 91 248 116T284 179H326Q261 -6 116 -6Q68 -6 39 24T9
114Q9 141 17 179L85 500Z" />
<glyph unicode="j" glyph-name="j" horiz-adv-x="240" d="M86 500H230L131 36Q179 53 208 84T257 179H299Q285 132 265 97T219 42T171 10T122 -8L107 -80Q71 -250 -73 -250Q-121 -250 -153 -225T-185 -153Q-185 -54 -21 -4L86 500ZM97 601T97 634T120 690T176
714T232 691T256 634T233 578T176 555T120 578ZM-130 -139Q-130 -151 -121 -161T-96 -172Q-79 -172 -63 -149T-38 -83L-32 -54Q-130 -91 -130 -139Z" />
<glyph unicode="k" glyph-name="k" horiz-adv-x="518" d="M390 500H489L289 361Q311 365 322 365Q375 365 403 332T432 248Q432 226 422 187T412 128Q412 91 451 91Q481 91 498 112T535 179H577Q514 -6 393 -6Q332 -6 300 23T267 108Q267 132 276 174T285 236Q285
284 249 284Q220 284 175 247L123 0H-21L124 680L272 700L197 348L390 500Z" />
<glyph unicode="l" glyph-name="l" horiz-adv-x="267" d="M124 680L272 700L157 160Q153 143 153 128Q153 108 162 100T194 91Q223 91 248 116T284 179H326Q261 -6 116 -6Q68 -6 39 24T9 114Q9 141 17 179L124 680Z" />
<glyph unicode="m" glyph-name="m" horiz-adv-x="752" d="M552 362Q552 413 516 413Q466 413 438 321L370 0H226L299 345Q302 357 302 370Q302 414 272 414Q219 414 191 321L123 0H-21L85 500H229L218 448Q268 505 340 505Q425 505 442 419Q498 504 582 504Q633
504 663 476T693 391Q693 347 669 253T645 133Q645 91 685 91Q715 91 732 112T769 179H811Q748 -6 625 -6Q564 -6 536 26T507 107Q507 142 529 236T552 362Z" />
<glyph unicode="n" glyph-name="n" horiz-adv-x="505" d="M305 362Q305 413 269 413Q219 413 191 321L123 0H-21L85 500H229L218 448Q267 504 335 504Q386 504 416 476T446 391Q446 347 422 253T398 133Q398 91 438 91Q468 91 485 112T522 179H564Q501 -6 378
-6Q317 -6 289 26T260 107Q260 142 282 236T305 362Z" />
<glyph unicode="o" glyph-name="o" horiz-adv-x="439" d="M277 505Q403 505 405 348Q409 347 416 347Q484 347 570 407L579 380Q520 317 403 297Q391 160 324 77T163 -6Q89 -6 46 32T3 152Q3 189 11 233T40 326T91 414T169 479T277 505ZM203 88Q240 88 274 147T319
294Q292 300 292 336Q292 377 323 389Q322 419 313 432T285 445Q252 445 220 396T170 283T152 169Q152 121 163 105T203 88Z" />
<glyph unicode="p" glyph-name="p" horiz-adv-x="468" d="M93 537H237L221 462Q271 505 338 505Q460 505 460 347Q460 303 454 258T429 165T385 79T314 18T214 -6Q150 -6 129 30L77 -214L-74 -250L93 537ZM183 81Q232 81 265 130T311 237T323 350Q323 433 273
433Q233 433 204 384L145 104Q153 81 183 81Z" />
<glyph unicode="q" glyph-name="q" horiz-adv-x="486" d="M352 500H496L344 -214L193 -250L256 49Q205 -6 137 -6Q80 -6 42 33T4 155Q4 208 20 267T67 380T148 469T261 505Q333 505 342 456L352 500ZM292 443Q252 443 219 394T169 282T152 169Q152 142 157 125T171
101T186 93T202 91Q223 91 246 110T280 162L332 409Q326 443 292 443Z" />
<glyph unicode="r" glyph-name="r" horiz-adv-x="376" d="M85 500H229L215 437Q285 505 337 505Q369 505 387 483T406 430Q406 401 387 379T334 357Q315 357 306 367T295 388T290 410T276 420Q246 420 203 380L123 0H-21L85 500Z" />
<glyph unicode="s" glyph-name="s" horiz-adv-x="382" d="M399 179H441Q379 107 288 54Q231 -6 131 -6Q60 -6 23 32T-15 122Q-15 155 0 180T38 215Q105 333 161 511L309 531Q314 421 319 342T328 228T331 167Q331 145 327 129Q370 154 399 179ZM109 179Q109 160
97 145T65 130Q44 130 38 143Q38 107 52 90T99 73Q136 73 161 95T186 166Q186 191 179 257T167 403Q143 324 86 214Q109 203 109 179Z" />
<glyph unicode="t" glyph-name="t" horiz-adv-x="267" d="M115 638L263 658L229 500H289L281 460H221L157 160Q153 143 153 128Q153 108 162 100T194 91Q223 91 248 116T284 179H326Q261 -6 116 -6Q68 -6 39 24T9 114Q9 141 17 179L77 460H44L52 500H85L115 638Z" />
<glyph unicode="u" glyph-name="u" horiz-adv-x="505" d="M332 500H476L404 160Q400 143 400 128Q400 108 409 100T441 91Q496 91 522 179H564Q499 -6 363 -6Q320 -6 294 18T264 89Q206 -6 116 -6Q68 -6 39 24T9 114Q9 141 17 179L85 500H229L157 160Q154 145
154 132Q154 91 184 91Q238 91 264 179L332 500Z" />
<glyph unicode="v" glyph-name="v" horiz-adv-x="414" d="M353 520Q416 520 416 433Q416 382 407 326T375 210T320 103T239 25T131 -6T41 24T8 112Q8 136 13 160L85 500H229L157 160Q152 137 152 124Q152 91 186 91Q232 91 273 152T337 290T359 425Q355 415 327
415Q310 415 301 431T291 466Q291 490 307 505T353 520Z" />
<glyph unicode="w" glyph-name="w" horiz-adv-x="661" d="M85 500H229L157 160Q154 148 154 135Q154 91 184 91Q238 91 264 179L332 500H476L404 160Q399 137 399 124Q399 91 433 91Q479 91 520 152T584 290T606 425Q602 415 574 415Q557 415 548 431T538 466Q538
490 554 505T600 520Q663 520 663 433Q663 382 654 326T622 210T567 103T486 25T378 -6Q276 -6 258 78Q201 -6 116 -6Q68 -6 39 24T9 114Q9 141 17 179L85 500Z" />
<glyph unicode="x" glyph-name="x" horiz-adv-x="522" d="M378 248L387 178Q393 130 407 111T449 91Q478 91 503 116T539 179H581Q565 134 544 100T503 47T459 15T416 -2T377 -6Q284 -6 255 168L117 0H45L247 228L231 340Q224 389 216 406T193 423Q161 423 123
359T59 179H17Q30 240 49 293T96 397T164 476T253 505Q347 505 361 386L370 310Q454 405 457 454Q445 452 440 452Q393 452 393 508Q393 532 412 544T461 557Q487 557 502 529T517 466Q517 422 488 379T378 248Z" />
<glyph unicode="y" glyph-name="y" horiz-adv-x="486" d="M332 500H476L377 36Q425 53 454 84T503 179H545Q531 132 511 97T465 42T417 10T368 -8L353 -80Q317 -250 173 -250Q125 -250 93 -225T61 -153Q61 -54 224 -4L236 50Q186 -6 116 -6Q68 -6 39 24T9 114Q9
141 17 179L85 500H229L157 160Q154 148 154 135Q154 91 184 91Q236 91 262 173L332 500ZM116 -139Q116 -151 125 -161T150 -172Q167 -172 183 -149T208 -83L214 -54Q116 -91 116 -139Z" />
<glyph unicode="z" glyph-name="z" horiz-adv-x="428" d="M323 91Q304 92 304 112Q304 127 319 141T360 155Q382 155 393 142T404 107Q404 69 370 35T282 0H17L272 446H216Q161 446 161 430L166 426Q172 422 172 408Q172 382 156 369T118 355Q99 355 86 366T72
399Q72 434 105 467T188 500H445L200 77Q203 77 231 74T276 71Q319 71 323 91Z" />
<glyph unicode="{" glyph-name="braceleft" horiz-adv-x="288" d="M337 750L328 700Q292 700 272 696T237 674Q191 623 191 536Q191 508 194 451T197 365Q197 287 157 254Q169 240 169 218Q169 175 124 51T79 -124Q79 -147 81 -158T90 -182T116 -199T164 -204L155
-249H126Q61 -249 27 -220T-7 -140Q-7 -83 38 32T84 197Q84 228 43 228Q30 228 11 225L23 282Q41 279 54 279Q76 279 90 289T111 317T119 352T121 390Q121 418 118 471T114 549Q114 580 124 613T154 677T210 729T294 750H337Z" />
<glyph unicode="|" glyph-name="bar" horiz-adv-x="314" d="M188 751V-250H95V751H188Z" />
<glyph unicode="}" glyph-name="braceright" horiz-adv-x="287" d="M-80 -249L-71 -199Q-35 -199 -15 -195T20 -173Q66 -122 66 -35Q66 -6 63 51T60 136Q60 214 100 247Q88 261 88 283Q88 326 133 450T178 625Q178 648 176 659T167 683T141 700T93 705L102 750H131Q196
750 230 721T264 641Q264 584 219 469T173 304Q173 273 214 273Q227 273 246 276L234 219Q216 222 203 222Q181 222 167 212T146 184T138 149T136 111Q136 83 139 30T143 -48Q143 -79 133 -112T103 -176T47 -228T-37 -249H-80Z" />
<glyph unicode="~" glyph-name="asciitilde" horiz-adv-x="441" d="M481 670L487 669Q478 632 430 601T326 569Q292 569 238 587T158 606Q120 606 92 580L86 582Q135 680 253 680Q291 680 341 664T418 647Q460 647 481 670Z" />
<glyph unicode="&#xa1;" glyph-name="exclamdown" horiz-adv-x="259" d="M69 221H154L83 -248H-61L69 221ZM59 339T59 372T82 428T138 452T194 429T218 372T195 316T138 293T82 316Z" />
<glyph unicode="&#xa2;" glyph-name="cent" horiz-adv-x="391" d="M130 -27L161 146Q106 154 70 198T34 316Q34 422 89 502T242 595L264 718H322L295 596Q385 590 385 528Q385 511 380 495H323Q328 513 328 523Q328 557 291 557H286L210 214Q215 213 225 213Q250
213 275 224T316 247T357 281Q335 151 195 145L157 -27H130ZM139 319Q139 257 176 229L231 534Q191 503 165 442T139 319Z" />
<glyph unicode="&#xa3;" glyph-name="sterling" horiz-adv-x="488" d="M420 423L426 422Q417 385 369 354T265 322H249L193 91Q209 93 242 94T297 97T353 115T427 158Q419 86 391 43T323 0H28L114 358Q112 358 106 358T97 359Q59 359 31 333L25 335Q58 402 130
424L202 719L352 750L272 419Q331 400 357 400Q399 400 420 423Z" />
<glyph unicode="&#xa4;" glyph-name="currency" horiz-adv-x="479" d="M59 492L97 528L153 472Q194 502 244 502Q293 502 333 473L389 529L425 493L370 438Q400 397 400 346Q400 296 370 255L425 200L389 164L334 219Q294 190 244 190Q193 190 152 220L96 164L60
200L116 256Q87 296 87 345Q87 395 116 435L59 492ZM285 446T244 446T174 417T144 346T173 276T244 246T314 275T344 346T315 416Z" />
<glyph unicode="&#xa5;" glyph-name="yen" horiz-adv-x="558" d="M379 307H510L496 257H368L354 192H485L471 142H343L313 0H153L183 142H84L98 192H194L208 257H109L123 307H219L107 750H271L359 389L509 750H575L379 307Z" />
<glyph unicode="&#xa6;" glyph-name="brokenbar" horiz-adv-x="318" d="M190 222V-250H97V222H190ZM190 301H97V751H190V301Z" />
<glyph unicode="&#xa7;" glyph-name="section" horiz-adv-x="521" d="M506 655Q506 620 488 597T440 574Q418 574 403 590Q419 600 429 619T439 659Q439 682 425 697T383 713Q343 713 316 681T289 606Q289 572 309 544T359 493T417 446T466 386T487 303Q487 243
456 195T371 136Q371 48 314 -3T154 -54Q133 -54 114 -52T71 -42T30 -20T1 19T-11 77Q-11 131 16 165T85 200Q104 200 120 191T144 174T164 150Q120 146 102 129T83 74Q83 -4 160 -4Q245 -4 245 92Q245 138 227 174T182 234T129 280T84 332T65 398Q65 445 93 481T169
535Q164 557 164 577Q164 660 228 705T376 750Q395 750 413 747T454 736T491 707T506 655ZM384 246Q384 286 362 320T310 375T245 427T190 486Q171 476 171 451Q171 424 197 394T256 338T321 272T365 183Q384 207 384 246Z" />
<glyph unicode="&#xa8;" glyph-name="dieresis" horiz-adv-x="392" d="M56 634Q56 659 74 677T117 695T160 677T178 634T160 591T117 573T74 590T56 634ZM236 634Q236 659 254 677T297 695T340 677T358 634T340 591T297 573T254 590T236 634Z" />
<glyph unicode="&#xa9;" glyph-name="copyright" horiz-adv-x="564" d="M143 336Q143 401 188 442T292 484Q333 484 367 460T415 389L368 371Q363 400 341 415T289 431Q252 431 225 407T198 341Q198 296 225 265T293 234Q344 234 368 279L412 250Q367 182 289
182Q229 182 186 227T143 336ZM284 76Q185 76 114 150T42 331Q42 438 113 512T284 587T455 513T526 332T455 151T284 76ZM88 420T88 331T146 180T286 118Q367 118 425 180T483 331T425 482T286 544Q204 544 146 482Z" />
<glyph unicode="&#xaa;" glyph-name="ordfeminine" horiz-adv-x="356" d="M374 740L332 556Q329 542 329 537Q329 518 350 518Q360 518 365 520Q348 470 309 470Q280 470 268 483T252 524Q216 467 163 467Q95 467 95 557Q95 624 133 684T237 745Q270 745 288 727L291
740H374ZM253 711Q221 711 197 663T173 565Q173 512 202 512Q228 512 250 561L282 700Q268 711 253 711Z" />
<glyph unicode="&#xab;" glyph-name="guillemotleft" horiz-adv-x="516" d="M224 449L266 404L91 253L228 113L188 69L8 254L224 449ZM432 449L474 404L299 253L436 113L396 69L216 254L432 449Z" />
<glyph unicode="&#xac;" glyph-name="logicalnot" horiz-adv-x="467" d="M400 301L349 51H236L271 222H20L38 301H400Z" />
<glyph unicode="&#xad;" glyph-name="uni00AD" horiz-adv-x="321" d="M257 301L240 222H39L57 301H257Z" />
<glyph unicode="&#xae;" glyph-name="registered" horiz-adv-x="564" d="M285 79Q186 79 115 153T43 334Q43 441 114 515T285 590T456 516T527 335T456 154T285 79ZM89 423T89 334T147 183T287 121Q368 121 426 183T484 334T426 485T287 547Q205 547 147 485ZM189
192L190 483H287Q340 483 368 461T397 399Q397 371 381 351T338 322L403 197L356 190L294 315H235V192H189ZM235 442V353H280Q351 353 351 397Q351 442 290 442H235Z" />
<glyph unicode="0;" glyph-name="degree" horiz-adv-x="320" d="M246 702Q328 702 328 589Q328 515 287 445T180 374Q125 374 105 402T84 488Q84 579 128 640T246 702ZM158 519Q156 495 156 476Q156 411 183 411Q221 411 244 468T268 604Q268 667 243 667T191
627T158 519Z" />
<glyph unicode="1;" glyph-name="plusminus" horiz-adv-x="479" d="M346 543L319 421H446L423 309H295L268 186H155L182 309H54L78 421H206L233 543H346ZM387 147L370 68H2L20 147H387Z" />
<glyph unicode="2;" glyph-name="twosuperior" horiz-adv-x="349" d="M141 416Q159 416 196 411T254 406Q263 406 271 407T283 410T296 416T305 423T317 433T329 444Q329 418 329 406T325 378T314 356T293 344T260 339Q228 339 187 349T117 359Q111 359 103
356T84 349T71 343Q69 355 69 361Q69 388 83 415T118 463T164 509T210 556T246 610T260 676Q260 695 249 707T225 720Q197 720 188 710T178 677Q178 646 200 640Q178 621 155 621Q137 621 126 634T114 670Q114 702 143 725T234 749Q344 749 344 663Q344 629 328
599T285 545T231 501T177 458T137 416H141Z" />
<glyph unicode="3;" glyph-name="threesuperior" horiz-adv-x="350" d="M183 484Q132 480 132 420Q132 395 145 386T183 376Q214 376 234 404T254 470Q254 503 236 531T179 571Q226 582 252 614T278 678Q278 697 268 708T241 720Q189 720 189 677Q189 646
211 640Q189 621 166 621Q148 621 137 634T125 670Q125 701 157 725T250 749Q298 749 325 726T352 670Q352 607 273 570Q345 549 345 482Q345 430 302 386T196 342Q67 342 67 429Q67 468 85 489T136 511Q176 511 183 484Z" />
<glyph unicode="4;" glyph-name="acute" horiz-adv-x="316" d="M120 561L211 750H316L195 561H120Z" />
<glyph unicode="5;" glyph-name="mu" horiz-adv-x="505" d="M85 500H229L157 160Q154 148 154 135Q154 91 184 91Q238 91 264 179L332 500H476L404 160Q400 143 400 128Q400 108 409 100T441 91Q496 91 522 179H564Q501 0 363 0Q321 0 295 23T265 90Q210 2
122 0L95 -130L-56 -166L85 500Z" />
<glyph unicode="6;" glyph-name="paragraph" horiz-adv-x="519" d="M232 -81H138L215 288Q143 302 104 359T65 491Q65 593 132 671T315 749Q397 749 448 709T500 584Q500 554 492 512L365 -81H271L352 299Q337 294 309 288L232 -81ZM320 339H326Q346 339 361
343L409 570Q415 598 415 619Q415 661 392 682L320 339Z" />
<glyph unicode="7;" glyph-name="middot" horiz-adv-x="281" d="M33 227T33 267T61 335T129 364T197 336T226 267T198 199T129 171T61 199Z" />
<glyph unicode="8;" glyph-name="cedilla" horiz-adv-x="227" d="M227 -108Q227 -159 191 -188T107 -218Q54 -218 0 -190Q18 -158 40 -158T82 -171T114 -185T135 -172T144 -143Q144 -128 135 -118T105 -107Q79 -107 53 -119L106 29L141 6L112 -66Q144 -58
165 -58Q227 -58 227 -108Z" />
<glyph unicode="9;" glyph-name="onesuperior" horiz-adv-x="227" d="M257 749L165 345H81L158 682H103L110 707Q182 707 257 749Z" />
<glyph unicode="a;" glyph-name="ordmasculine" horiz-adv-x="309" d="M317 671Q324 675 350 703L356 692Q343 649 317 635Q313 557 273 512T188 466Q141 466 119 487T97 555Q97 648 141 696T249 745Q271 745 287 738T304 721Q304 704 278 695Q270 714 252
714Q226 714 207 684T181 620T174 560Q174 519 215 519Q261 519 274 627Q259 631 259 649Q259 663 271 676T298 690Q309 690 313 686T317 671Z" />
<glyph unicode="b;" glyph-name="guillemotright" horiz-adv-x="519" d="M267 69L225 114L400 265L263 405L303 449L483 264L267 69ZM59 69L17 114L192 265L55 405L95 449L275 264L59 69Z" />
<glyph unicode="c;" glyph-name="onequarter" horiz-adv-x="676" d="M454 750L190 -165H118L382 750H454ZM494 150H353Q360 170 382 213T421 297T437 373Q437 391 433 406Q460 406 479 393T498 355Q498 324 485 296T446 236T413 189H503L550 395L636 406L586
189H624L612 150H577L543 1H460L494 150ZM225 629L133 225H49L126 562H71L78 587Q150 587 225 629Z" />
<glyph unicode="d;" glyph-name="onehalf" horiz-adv-x="684" d="M449 750L185 -165H113L377 750H449ZM225 629L133 225H49L126 562H71L78 587Q150 587 225 629ZM417 76Q435 76 472 71T530 66Q539 66 547 67T559 70T572 76T581 83T593 93T605 104Q605 78 605
66T601 38T590 16T569 4T536 -1Q504 -1 463 9T393 19Q387 19 379 16T360 9T347 3Q345 15 345 21Q345 48 359 75T394 123T440 169T486 216T522 270T536 336Q536 355 525 367T501 380Q473 380 464 370T454 337Q454 306 476 300Q454 281 431 281Q413 281 402 294T390
330Q390 362 419 385T510 409Q620 409 620 323Q620 289 604 259T561 205T507 161T453 118T413 76H417Z" />
<glyph unicode="e;" glyph-name="threequarters" horiz-adv-x="778" d="M555 750L291 -165H219L483 750H555ZM141 364Q90 360 90 300Q90 275 103 266T141 256Q172 256 192 284T212 350Q212 383 194 411T137 451Q184 462 210 494T236 558Q236 577 226 588T199
600Q147 600 147 557Q147 526 169 520Q147 501 124 501Q106 501 95 514T83 550Q83 581 115 605T208 629Q256 629 283 606T310 550Q310 487 231 450Q303 429 303 362Q303 310 260 266T154 222Q25 222 25 309Q25 348 43 369T94 391Q134 391 141 364ZM598 150H457Q464
170 486 213T525 297T541 373Q541 391 537 406Q564 406 583 393T602 355Q602 324 589 296T550 236T517 189H607L654 395L740 406L690 189H728L716 150H681L647 1H564L598 150Z" />
<glyph unicode="f;" glyph-name="questiondown" horiz-adv-x="417" d="M-64 -119Q-64 -71 -44 -33T7 33T70 87T133 147T176 221H242Q242 183 223 148T176 85T121 27T75 -39T55 -116Q55 -157 72 -175T114 -193Q145 -193 170 -170T195 -111Q195 -90 186 -70T157
-44Q182 -2 230 -2Q261 -2 283 -24T306 -86Q306 -147 253 -197T91 -247Q5 -247 -29 -214T-64 -119ZM154 340T154 373T177 429T233 453T289 430T313 373T290 317T233 294T177 317Z" />
<glyph unicode="0;" glyph-name="Agrave" horiz-adv-x="603" d="M487 0H343L420 363Q354 393 286 399Q229 276 193 149T156 -54Q156 -93 170 -114Q148 -114 135 -113T100 -107T67 -91T46 -59T36 -8Q36 59 76 171T183 399Q83 393 66 347Q70 347 74 337T79 316Q79
298 63 288T23 277Q-4 277 -21 292T-39 335Q-39 386 19 422T163 458Q186 458 217 455Q299 586 391 668T567 750Q610 750 644 736L487 0ZM429 407L487 679Q403 634 307 442Q377 428 429 407ZM448 811L389 1000H494L523 811H448Z" />
<glyph unicode="1;" glyph-name="Aacute" horiz-adv-x="603" d="M487 0H343L420 363Q354 393 286 399Q229 276 193 149T156 -54Q156 -93 170 -114Q148 -114 135 -113T100 -107T67 -91T46 -59T36 -8Q36 59 76 171T183 399Q83 393 66 347Q70 347 74 337T79 316Q79
298 63 288T23 277Q-4 277 -21 292T-39 335Q-39 386 19 422T163 458Q186 458 217 455Q299 586 391 668T567 750Q610 750 644 736L487 0ZM429 407L487 679Q403 634 307 442Q377 428 429 407ZM438 811L529 1000H634L513 811H438Z" />
<glyph unicode="2;" glyph-name="Acircumflex" horiz-adv-x="603" d="M487 0H343L420 363Q354 393 286 399Q229 276 193 149T156 -54Q156 -93 170 -114Q148 -114 135 -113T100 -107T67 -91T46 -59T36 -8Q36 59 76 171T183 399Q83 393 66 347Q70 347 74 337T79
316Q79 298 63 288T23 277Q-4 277 -21 292T-39 335Q-39 386 19 422T163 458Q186 458 217 455Q299 586 391 668T567 750Q610 750 644 736L487 0ZM429 407L487 679Q403 634 307 442Q377 428 429 407ZM652 811H620L560 891L403 811H359L571 1000H592L652 811Z" />
<glyph unicode="3;" glyph-name="Atilde" horiz-adv-x="603" d="M487 0H343L420 363Q354 393 286 399Q229 276 193 149T156 -54Q156 -93 170 -114Q148 -114 135 -113T100 -107T67 -91T46 -59T36 -8Q36 59 76 171T183 399Q83 393 66 347Q70 347 74 337T79 316Q79
298 63 288T23 277Q-4 277 -21 292T-39 335Q-39 386 19 422T163 458Q186 458 217 455Q299 586 391 668T567 750Q610 750 644 736L487 0ZM756 920L762 919Q753 882 705 851T601 819Q567 819 513 837T433 856Q395 856 367 830L361 832Q410 930 528 930Q566 930 616
914T693 897Q735 897 756 920ZM429 407L487 679Q403 634 307 442Q377 428 429 407Z" />
<glyph unicode="4;" glyph-name="Adieresis" horiz-adv-x="603" d="M487 0H343L420 363Q354 393 286 399Q229 276 193 149T156 -54Q156 -93 170 -114Q148 -114 135 -113T100 -107T67 -91T46 -59T36 -8Q36 59 76 171T183 399Q83 393 66 347Q70 347 74 337T79
316Q79 298 63 288T23 277Q-4 277 -21 292T-39 335Q-39 386 19 422T163 458Q186 458 217 455Q299 586 391 668T567 750Q610 750 644 736L487 0ZM429 407L487 679Q403 634 307 442Q377 428 429 407ZM562 884Q562 909 580 927T623 945T666 927T684 884T666 841T623
823T580 840T562 884ZM382 884Q382 909 400 927T443 945T486 927T504 884T486 841T443 823T400 840T382 884Z" />
<glyph unicode="5;" glyph-name="Aring" horiz-adv-x="603" d="M487 0H343L420 363Q354 393 286 399Q229 276 193 149T156 -54Q156 -93 170 -114Q148 -114 135 -113T100 -107T67 -91T46 -59T36 -8Q36 59 76 171T183 399Q83 393 66 347Q70 347 74 337T79 316Q79
298 63 288T23 277Q-4 277 -21 292T-39 335Q-39 386 19 422T163 458Q186 458 217 455Q299 586 391 668T567 750Q610 750 644 736L487 0ZM429 407L487 679Q403 634 307 442Q377 428 429 407ZM522 963Q557 963 575 942T594 886Q594 850 573 826T507 802Q476 802 457
822T437 872Q437 904 459 933T522 963ZM557 883Q557 930 524 930Q500 930 489 913T477 874Q477 837 511 837Q557 837 557 883Z" />
<glyph unicode="6;" glyph-name="AE" horiz-adv-x="842" d="M766 0H397L474 363Q400 395 339 399Q283 277 247 149T210 -57Q210 -74 212 -85T216 -100T221 -107T224 -113Q195 -111 183 -110T148 -103T117 -85T99 -53T90 -1Q90 63 130 174T237 399Q138 392
120 347Q124 347 128 337T133 316Q133 299 118 288T72 277Q48 277 32 292T15 340Q15 386 74 420T210 455Q236 455 269 452Q351 584 443 667T618 751Q644 751 702 741T798 731Q855 731 915 750Q914 747 909 731T902 709T893 690T880 670T863 655T839 644T808 640Q798
640 788 641T768 644T751 647T733 653T717 659T700 666T684 672L630 419H785L765 345H614L563 106H787L766 0ZM483 407L541 679Q455 632 359 441Q430 428 483 407Z" />
<glyph unicode="7;" glyph-name="Ccedilla" horiz-adv-x="507" d="M388 -108Q388 -159 352 -188T268 -218Q215 -218 161 -190Q179 -158 201 -158T243 -171T275 -185T296 -172T305 -143Q305 -128 296 -118T266 -107Q240 -107 214 -119L251 -16Q45 -16 45 229Q45
288 55 353T92 490T157 619T258 713T398 750Q471 750 516 717T561 614Q561 524 491 524Q456 524 434 550Q452 559 466 586T480 641T466 685T423 703Q368 703 318 629T239 447T211 239Q211 159 236 117T330 75Q386 75 438 103T526 180L549 170Q514 93 446 45T294
-13L273 -66Q305 -58 326 -58Q388 -58 388 -108Z" />
<glyph unicode="8;" glyph-name="Egrave" horiz-adv-x="449" d="M467 180L490 170Q452 84 371 33T197 -18Q106 -18 60 32T13 158Q13 242 64 319T198 417Q137 461 137 537Q137 618 200 685T356 752Q418 752 458 719T499 627Q499 583 477 553T425 523Q398 523
378 550Q396 556 409 583T422 637Q422 666 406 679T367 693Q324 693 295 650T265 552Q265 505 290 468T366 418Q290 401 239 327T187 179Q187 134 210 106T282 78Q332 78 387 105T467 180ZM317 811L258 1000H363L392 811H317Z" />
<glyph unicode="9;" glyph-name="Eacute" horiz-adv-x="449" d="M467 180L490 170Q452 84 371 33T197 -18Q106 -18 60 32T13 158Q13 242 64 319T198 417Q137 461 137 537Q137 618 200 685T356 752Q418 752 458 719T499 627Q499 583 477 553T425 523Q398 523
378 550Q396 556 409 583T422 637Q422 666 406 679T367 693Q324 693 295 650T265 552Q265 505 290 468T366 418Q290 401 239 327T187 179Q187 134 210 106T282 78Q332 78 387 105T467 180ZM355 811L446 1000H551L430 811H355Z" />
<glyph unicode="a;" glyph-name="Ecircumflex" horiz-adv-x="449" d="M467 180L490 170Q452 84 371 33T197 -18Q106 -18 60 32T13 158Q13 242 64 319T198 417Q137 461 137 537Q137 618 200 685T356 752Q418 752 458 719T499 627Q499 583 477 553T425 523Q398
523 378 550Q396 556 409 583T422 637Q422 666 406 679T367 693Q324 693 295 650T265 552Q265 505 290 468T366 418Q290 401 239 327T187 179Q187 134 210 106T282 78Q332 78 387 105T467 180ZM501 811H469L409 891L252 811H208L420 1000H441L501 811Z" />
<glyph unicode="b;" glyph-name="Edieresis" horiz-adv-x="449" d="M467 180L490 170Q452 84 371 33T197 -18Q106 -18 60 32T13 158Q13 242 64 319T198 417Q137 461 137 537Q137 618 200 685T356 752Q418 752 458 719T499 627Q499 583 477 553T425 523Q398
523 378 550Q396 556 409 583T422 637Q422 666 406 679T367 693Q324 693 295 650T265 552Q265 505 290 468T366 418Q290 401 239 327T187 179Q187 134 210 106T282 78Q332 78 387 105T467 180ZM244 884Q244 909 262 927T305 945T348 927T366 884T348 841T305 823T262
840T244 884ZM424 884Q424 909 442 927T485 945T528 927T546 884T528 841T485 823T442 840T424 884Z" />
<glyph unicode="c;" glyph-name="Igrave" horiz-adv-x="404" d="M447 748L288 0H144L289 679Q223 652 186 596T149 462Q149 445 151 432T155 413T160 401T163 393Q56 393 56 485Q56 553 109 615T243 713T406 750Q421 750 447 748ZM280 811L221 1000H326L355 811H280Z" />
<glyph unicode="d;" glyph-name="Iacute" horiz-adv-x="404" d="M447 748L288 0H144L289 679Q223 652 186 596T149 462Q149 445 151 432T155 413T160 401T163 393Q56 393 56 485Q56 553 109 615T243 713T406 750Q421 750 447 748ZM319 811L410 1000H515L394 811H319Z" />
<glyph unicode="e;" glyph-name="Icircumflex" horiz-adv-x="404" d="M447 748L288 0H144L289 679Q223 652 186 596T149 462Q149 445 151 432T155 413T160 401T163 393Q56 393 56 485Q56 553 109 615T243 713T406 750Q421 750 447 748ZM494 811H462L402 891L245
811H201L413 1000H434L494 811Z" />
<glyph unicode="f;" glyph-name="Idieresis" horiz-adv-x="404" d="M447 748L288 0H144L289 679Q223 652 186 596T149 462Q149 445 151 432T155 413T160 401T163 393Q56 393 56 485Q56 553 109 615T243 713T406 750Q421 750 447 748ZM397 884Q397 909 415
927T458 945T501 927T519 884T501 841T458 823Q432 823 415 840T397 884ZM217 884Q217 909 235 927T278 945T321 927T339 884T321 841T278 823Q252 823 235 840T217 884Z" />
<glyph unicode="&#xd0;" glyph-name="Eth" horiz-adv-x="707" d="M281 636L429 656L378 419H457L437 345H362L309 95Q336 75 366 75Q422 75 467 144T535 311T558 508Q558 610 530 657T420 704Q297 704 224 639T150 461Q150 438 153 424T160 402T164 393Q110 393
84 415T57 490Q57 588 169 669T408 750Q696 750 696 480Q696 353 658 239T556 56T419 -13Q359 -13 297 40L289 0H145L219 345H180L200 419H235L281 636Z" />
<glyph unicode="&#xd1;" glyph-name="Ntilde" horiz-adv-x="723" d="M673 748H770L600 0H462L346 496L232 0H137L291 681Q154 627 154 464Q154 450 155 439T158 420T161 408T165 399T168 393Q114 393 88 415T61 490Q61 536 82 581T140 665T237 726T367 750Q407
750 437 736L554 205L673 748ZM758 920L764 919Q755 882 707 851T603 819Q569 819 515 837T435 856Q397 856 369 830L363 832Q412 930 530 930Q568 930 618 914T695 897Q737 897 758 920Z" />
<glyph unicode="&#xd2;" glyph-name="Ograve" horiz-adv-x="697" d="M469 656Q403 616 349 464T294 191Q294 83 354 83Q402 83 450 151T530 327T561 539Q561 628 532 666T428 704Q314 704 230 633T145 448Q145 411 155 393Q54 393 54 477Q54 545 110 609T260 711T452
750Q694 750 694 497Q694 436 681 370T639 236T569 115T465 28T328 -6Q146 -6 146 195Q146 259 163 337T213 489T299 614T418 664Q445 664 469 656ZM389 811L330 1000H435L464 811H389Z" />
<glyph unicode="&#xd3;" glyph-name="Oacute" horiz-adv-x="697" d="M469 656Q403 616 349 464T294 191Q294 83 354 83Q402 83 450 151T530 327T561 539Q561 628 532 666T428 704Q314 704 230 633T145 448Q145 411 155 393Q54 393 54 477Q54 545 110 609T260 711T452
750Q694 750 694 497Q694 436 681 370T639 236T569 115T465 28T328 -6Q146 -6 146 195Q146 259 163 337T213 489T299 614T418 664Q445 664 469 656ZM435 811L526 1000H631L510 811H435Z" />
<glyph unicode="&#xd4;" glyph-name="Ocircumflex" horiz-adv-x="697" d="M469 656Q403 616 349 464T294 191Q294 83 354 83Q402 83 450 151T530 327T561 539Q561 628 532 666T428 704Q314 704 230 633T145 448Q145 411 155 393Q54 393 54 477Q54 545 110 609T260
711T452 750Q694 750 694 497Q694 436 681 370T639 236T569 115T465 28T328 -6Q146 -6 146 195Q146 259 163 337T213 489T299 614T418 664Q445 664 469 656ZM603 811H571L511 891L354 811H310L522 1000H543L603 811Z" />
<glyph unicode="&#xd5;" glyph-name="Otilde" horiz-adv-x="697" d="M469 656Q403 616 349 464T294 191Q294 83 354 83Q402 83 450 151T530 327T561 539Q561 628 532 666T428 704Q314 704 230 633T145 448Q145 411 155 393Q54 393 54 477Q54 545 110 609T260 711T452
750Q694 750 694 497Q694 436 681 370T639 236T569 115T465 28T328 -6Q146 -6 146 195Q146 259 163 337T213 489T299 614T418 664Q445 664 469 656ZM707 920L713 919Q704 882 656 851T552 819Q518 819 464 837T384 856Q346 856 318 830L312 832Q361 930 479 930Q517
930 567 914T644 897Q686 897 707 920Z" />
<glyph unicode="&#xd6;" glyph-name="Odieresis" horiz-adv-x="697" d="M469 656Q403 616 349 464T294 191Q294 83 354 83Q402 83 450 151T530 327T561 539Q561 628 532 666T428 704Q314 704 230 633T145 448Q145 411 155 393Q54 393 54 477Q54 545 110 609T260
711T452 750Q694 750 694 497Q694 436 681 370T639 236T569 115T465 28T328 -6Q146 -6 146 195Q146 259 163 337T213 489T299 614T418 664Q445 664 469 656ZM326 884Q326 909 344 927T387 945T430 927T448 884T430 841T387 823T344 840T326 884ZM506 884Q506 909
524 927T567 945T610 927T628 884T610 841T567 823T524 840T506 884Z" />
<glyph unicode="&#xd7;" glyph-name="multiply" horiz-adv-x="414" d="M35 355L100 419L194 324L290 420L354 355L259 260L354 165L290 100L194 195L100 101L35 165L130 260L35 355Z" />
<glyph unicode="&#xd8;" glyph-name="Oslash" horiz-adv-x="660" d="M348 -71H296L310 -6Q135 -6 135 183Q135 243 152 316T200 458T283 575T396 622Q420 622 441 615L450 656Q433 659 412 659Q297 659 216 593T134 418Q134 402 136 392T141 376T144 368Q46 368
46 446Q46 545 164 623T435 702Q451 702 459 701L470 750H522L510 694Q663 658 663 462Q663 396 646 324T594 183T499 64T363 -1L348 -71ZM278 179Q278 78 326 70L440 610Q379 569 329 430T278 179ZM535 495Q535 601 497 634L382 88Q442 132 488 254T535 495Z"
/>
<glyph unicode="&#xd9;" glyph-name="Ugrave" horiz-adv-x="770" d="M675 748H816L750 436Q729 336 711 272T665 150T604 61T520 11T403 -7Q298 -7 254 33T210 155Q210 182 213 213T228 294T244 367T268 466T292 560L325 692Q242 670 195 611T148 462Q148 424
162 393Q55 393 55 485Q55 554 108 615T249 713T433 750Q455 750 481 745Q465 687 445 611T414 496T390 407T370 329T357 270T348 219T346 179Q346 122 358 103T425 84Q457 84 476 93T518 139T560 246T608 439L675 748ZM524 811L465 1000H570L599 811H524Z" />
<glyph unicode="&#xda;" glyph-name="Uacute" horiz-adv-x="770" d="M675 748H816L750 436Q729 336 711 272T665 150T604 61T520 11T403 -7Q298 -7 254 33T210 155Q210 182 213 213T228 294T244 367T268 466T292 560L325 692Q242 670 195 611T148 462Q148 424
162 393Q55 393 55 485Q55 554 108 615T249 713T433 750Q455 750 481 745Q465 687 445 611T414 496T390 407T370 329T357 270T348 219T346 179Q346 122 358 103T425 84Q457 84 476 93T518 139T560 246T608 439L675 748ZM506 811L597 1000H702L581 811H506Z" />
<glyph unicode="&#xdb;" glyph-name="Ucircumflex" horiz-adv-x="770" d="M675 748H816L750 436Q729 336 711 272T665 150T604 61T520 11T403 -7Q298 -7 254 33T210 155Q210 182 213 213T228 294T244 367T268 466T292 560L325 692Q242 670 195 611T148 462Q148
424 162 393Q55 393 55 485Q55 554 108 615T249 713T433 750Q455 750 481 745Q465 687 445 611T414 496T390 407T370 329T357 270T348 219T346 179Q346 122 358 103T425 84Q457 84 476 93T518 139T560 246T608 439L675 748ZM711 811H679L619 891L462 811H418L630
1000H651L711 811Z" />
<glyph unicode="&#xdc;" glyph-name="Udieresis" horiz-adv-x="770" d="M675 748H816L750 436Q729 336 711 272T665 150T604 61T520 11T403 -7Q298 -7 254 33T210 155Q210 182 213 213T228 294T244 367T268 466T292 560L325 692Q242 670 195 611T148 462Q148 424
162 393Q55 393 55 485Q55 554 108 615T249 713T433 750Q455 750 481 745Q465 687 445 611T414 496T390 407T370 329T357 270T348 219T346 179Q346 122 358 103T425 84Q457 84 476 93T518 139T560 246T608 439L675 748ZM608 884Q608 909 626 927T669 945T712 927T730
884T712 841T669 823T626 840T608 884ZM428 884Q428 909 446 927T489 945T532 927T550 884T532 841T489 823T446 840T428 884Z" />
<glyph unicode="&#xdd;" glyph-name="Yacute" horiz-adv-x="661" d="M487 0H327L393 308L297 683Q226 657 187 600T148 462Q148 445 150 432T154 413T159 401T162 393Q55 393 55 485Q55 553 108 615T242 713T405 750Q420 750 446 748L533 390L681 745H747L553
308L487 0ZM502 811L593 1000H698L577 811H502Z" />
<glyph unicode="&#xde;" glyph-name="Thorn" horiz-adv-x="603" d="M278 730L426 750L402 640Q510 635 565 579T621 443Q621 341 541 258T332 175H303L266 0H122L242 562Q127 501 127 351Q127 328 130 314T137 292T141 283Q87 283 61 305T34 380Q34 451 97 517T253
616L278 730ZM311 212H325Q401 212 455 291T510 458Q510 516 481 554T393 594L311 212Z" />
<glyph unicode="&#xdf;" glyph-name="germandbls" horiz-adv-x="450" d="M242 530L83 -214L-68 -250L98 530Q134 700 280 700Q346 700 381 663T417 573Q417 528 393 488T325 427Q422 394 422 285Q422 213 403 156T354 66T293 17T232 0Q221 0 199 2L212 61Q241
61 263 86T298 150T315 228T321 306Q321 340 305 361T249 393L267 451Q350 485 350 562Q350 590 341 601T312 612Q291 612 271 594T242 530Z" />
<glyph unicode="&#xe0;" glyph-name="agrave" horiz-adv-x="526" d="M353 500H498L425 160Q421 143 421 128Q421 108 430 100T462 91Q517 91 543 179H585Q522 0 384 0Q343 0 318 22T286 87Q225 -6 137 -6Q80 -6 42 33T4 155Q4 208 20 267T67 380T148 469T261 505Q335
505 343 453L353 500ZM292 443Q252 443 219 394T169 282T152 169Q152 142 157 125T171 101T186 93T202 91Q226 91 251 114T285 179L333 405Q332 418 322 430T292 443ZM292 561L233 750H338L367 561H292Z" />
<glyph unicode="&#xe1;" glyph-name="aacute" horiz-adv-x="526" d="M353 500H498L425 160Q421 143 421 128Q421 108 430 100T462 91Q517 91 543 179H585Q522 0 384 0Q343 0 318 22T286 87Q225 -6 137 -6Q80 -6 42 33T4 155Q4 208 20 267T67 380T148 469T261 505Q335
505 343 453L353 500ZM292 443Q252 443 219 394T169 282T152 169Q152 142 157 125T171 101T186 93T202 91Q226 91 251 114T285 179L333 405Q332 418 322 430T292 443ZM262 561L353 750H458L337 561H262Z" />
<glyph unicode="&#xe2;" glyph-name="acircumflex" horiz-adv-x="526" d="M353 500H498L425 160Q421 143 421 128Q421 108 430 100T462 91Q517 91 543 179H585Q522 0 384 0Q343 0 318 22T286 87Q225 -6 137 -6Q80 -6 42 33T4 155Q4 208 20 267T67 380T148 469T261
505Q335 505 343 453L353 500ZM292 443Q252 443 219 394T169 282T152 169Q152 142 157 125T171 101T186 93T202 91Q226 91 251 114T285 179L333 405Q332 418 322 430T292 443ZM456 561H424L364 641L207 561H163L375 750H396L456 561Z" />
<glyph unicode="&#xe3;" glyph-name="atilde" horiz-adv-x="526" d="M353 500H498L425 160Q421 143 421 128Q421 108 430 100T462 91Q517 91 543 179H585Q522 0 384 0Q343 0 318 22T286 87Q225 -6 137 -6Q80 -6 42 33T4 155Q4 208 20 267T67 380T148 469T261 505Q335
505 343 453L353 500ZM292 443Q252 443 219 394T169 282T152 169Q152 142 157 125T171 101T186 93T202 91Q226 91 251 114T285 179L333 405Q332 418 322 430T292 443ZM514 670L520 669Q511 632 463 601T359 569Q325 569 271 587T191 606Q153 606 125 580L119 582Q168
680 286 680Q324 680 374 664T451 647Q493 647 514 670Z" />
<glyph unicode="&#xe4;" glyph-name="adieresis" horiz-adv-x="526" d="M353 500H498L425 160Q421 143 421 128Q421 108 430 100T462 91Q517 91 543 179H585Q522 0 384 0Q343 0 318 22T286 87Q225 -6 137 -6Q80 -6 42 33T4 155Q4 208 20 267T67 380T148 469T261
505Q335 505 343 453L353 500ZM292 443Q252 443 219 394T169 282T152 169Q152 142 157 125T171 101T186 93T202 91Q226 91 251 114T285 179L333 405Q332 418 322 430T292 443ZM197 634Q197 659 215 677T258 695T301 677T319 634T301 591T258 573Q232 573 215 590T197
634ZM377 634Q377 659 395 677T438 695T481 677T499 634T481 591T438 573Q412 573 395 590T377 634Z" />
<glyph unicode="&#xe5;" glyph-name="aring" horiz-adv-x="526" d="M353 500H498L425 160Q421 143 421 128Q421 108 430 100T462 91Q517 91 543 179H585Q522 0 384 0Q343 0 318 22T286 87Q225 -6 137 -6Q80 -6 42 33T4 155Q4 208 20 267T67 380T148 469T261 505Q335
505 343 453L353 500ZM292 443Q252 443 219 394T169 282T152 169Q152 142 157 125T171 101T186 93T202 91Q226 91 251 114T285 179L333 405Q332 418 322 430T292 443ZM336 713Q371 713 389 692T408 636Q408 600 387 576T321 552Q290 552 271 572T251 622Q251 654
273 683T336 713ZM371 633Q371 680 338 680Q314 680 303 663T291 624Q291 587 325 587Q371 587 371 633Z" />
<glyph unicode="&#xe6;" glyph-name="ae" horiz-adv-x="649" d="M136 -6Q83 -6 46 23T9 124Q9 290 231 290Q259 290 283 286Q304 331 304 374Q304 406 289 425T243 445Q174 445 122 398L94 427Q129 463 163 481T218 502T276 505Q357 505 406 465Q465 509 541 509Q603
509 626 483T650 410Q650 328 581 268T420 202Q418 180 418 170Q418 117 433 98T478 78Q524 78 559 92T613 124T667 179H701Q587 -4 425 -4Q305 -4 278 90Q254 44 223 19T136 -6ZM573 412Q573 456 549 456Q513 456 479 393T427 250Q485 254 529 303T573 412ZM259
229Q210 229 180 205T150 141Q150 120 160 108T178 94T196 91Q223 91 242 121T276 228Q270 229 259 229Z" />
<glyph unicode="&#xe7;" glyph-name="ccedilla" horiz-adv-x="384" d="M291 345Q308 382 308 415Q308 452 280 452Q247 452 216 402T166 285T148 163Q148 115 166 97T224 78Q278 78 317 103T401 179H435Q320 -6 160 -6Q149 -6 143 -5L148 6L113 29L103 1Q4 27
4 153Q4 201 18 257T62 371T146 467T273 505Q384 505 384 417Q384 381 369 357T331 333T291 345ZM234 -108Q234 -159 198 -188T114 -218Q61 -218 7 -190Q25 -158 47 -158T89 -171T121 -185T142 -172T151 -143Q151 -128 142 -118T112 -107Q86 -107 60 -119L103 1Q121
-3 143 -5L119 -66Q151 -58 172 -58Q234 -58 234 -108Z" />
<glyph unicode="&#xe8;" glyph-name="egrave" horiz-adv-x="384" d="M152 162Q152 113 169 96T224 78Q278 78 317 103T401 179H435Q320 -6 160 -6Q4 -6 4 153Q4 190 12 233T40 326T90 414T168 479T274 505Q384 505 384 409Q384 326 316 267T154 202Q152 174 152
162ZM249 561L190 750H295L324 561H249ZM307 411Q307 452 282 452Q247 452 213 391T162 250Q220 254 263 302T307 411Z" />
<glyph unicode="&#xe9;" glyph-name="eacute" horiz-adv-x="384" d="M152 162Q152 113 169 96T224 78Q278 78 317 103T401 179H435Q320 -6 160 -6Q4 -6 4 153Q4 190 12 233T40 326T90 414T168 479T274 505Q384 505 384 409Q384 326 316 267T154 202Q152 174 152
162ZM211 561L302 750H407L286 561H211ZM307 411Q307 452 282 452Q247 452 213 391T162 250Q220 254 263 302T307 411Z" />
<glyph unicode="&#xea;" glyph-name="ecircumflex" horiz-adv-x="384" d="M152 162Q152 113 169 96T224 78Q278 78 317 103T401 179H435Q320 -6 160 -6Q4 -6 4 153Q4 190 12 233T40 326T90 414T168 479T274 505Q384 505 384 409Q384 326 316 267T154 202Q152 174
152 162ZM415 561H383L323 641L166 561H122L334 750H355L415 561ZM307 411Q307 452 282 452Q247 452 213 391T162 250Q220 254 263 302T307 411Z" />
<glyph unicode="&#xeb;" glyph-name="edieresis" horiz-adv-x="384" d="M152 162Q152 113 169 96T224 78Q278 78 317 103T401 179H435Q320 -6 160 -6Q4 -6 4 153Q4 190 12 233T40 326T90 414T168 479T274 505Q384 505 384 409Q384 326 316 267T154 202Q152 174
152 162ZM307 411Q307 452 282 452Q247 452 213 391T162 250Q220 254 263 302T307 411ZM136 634Q136 659 154 677T197 695T240 677T258 634T240 591T197 573T154 590T136 634ZM316 634Q316 659 334 677T377 695T420 677T438 634T420 591T377 573T334 590T316 634Z"
/>
<glyph unicode="&#xec;" glyph-name="igrave" horiz-adv-x="267" d="M85 500H229L157 160Q153 143 153 128Q153 108 162 100T194 91Q223 91 248 116T284 179H326Q261 -6 116 -6Q68 -6 39 24T9 114Q9 141 17 179L85 500ZM142 561L83 750H188L217 561H142Z" />
<glyph unicode="&#xed;" glyph-name="iacute" horiz-adv-x="267" d="M85 500H229L157 160Q153 143 153 128Q153 108 162 100T194 91Q223 91 248 116T284 179H326Q261 -6 116 -6Q68 -6 39 24T9 114Q9 141 17 179L85 500ZM138 561L229 750H334L213 561H138Z" />
<glyph unicode="&#xee;" glyph-name="icircumflex" horiz-adv-x="267" d="M85 500H229L157 160Q153 143 153 128Q153 108 162 100T194 91Q223 91 248 116T284 179H326Q261 -6 116 -6Q68 -6 39 24T9 114Q9 141 17 179L85 500ZM316 561H284L224 641L67 561H23L235
750H256L316 561Z" />
<glyph unicode="&#xef;" glyph-name="idieresis" horiz-adv-x="267" d="M85 500H229L157 160Q153 143 153 128Q153 108 162 100T194 91Q223 91 248 116T284 179H326Q261 -6 116 -6Q68 -6 39 24T9 114Q9 141 17 179L85 500ZM34 634Q34 659 52 677T95 695T138 677T156
634T138 591T95 573T52 590T34 634ZM214 634Q214 659 232 677T275 695T318 677T336 634T318 591T275 573T232 590T214 634Z" />
<glyph unicode="&#xf0;" glyph-name="eth" horiz-adv-x="538" d="M491 415L437 160Q433 143 433 128Q433 108 442 100T474 91Q529 91 555 179H597Q534 0 396 0Q355 0 330 22T298 87Q237 -6 149 -6Q92 -6 54 33T16 155Q16 208 32 267T79 380T160 469T273 505Q354
505 354 454V448L362 485Q372 536 374 575L299 563L301 602L371 613Q362 659 331 700H376Q439 664 466 629L540 642V601L487 592Q502 554 502 508Q502 470 491 415ZM297 179L345 405Q345 417 336 430T304 443Q264 443 231 394T181 282T164 169Q164 142 169 125T183
101T198 93T214 91Q238 91 263 114T297 179Z" />
<glyph unicode="&#xf1;" glyph-name="ntilde" horiz-adv-x="505" d="M305 362Q305 413 269 413Q219 413 191 321L123 0H-21L85 500H229L218 448Q267 504 335 504Q386 504 416 476T446 391Q446 347 422 253T398 133Q398 91 438 91Q468 91 485 112T522 179H564Q501
-6 378 -6Q317 -6 289 26T260 107Q260 142 282 236T305 362ZM500 670L506 669Q497 632 449 601T345 569Q311 569 257 587T177 606Q139 606 111 580L105 582Q154 680 272 680Q310 680 360 664T437 647Q479 647 500 670Z" />
<glyph unicode="&#xf2;" glyph-name="ograve" horiz-adv-x="439" d="M277 505Q403 505 405 348Q409 347 416 347Q484 347 570 407L579 380Q520 317 403 297Q391 160 324 77T163 -6Q89 -6 46 32T3 152Q3 189 11 233T40 326T91 414T169 479T277 505ZM203 88Q240
88 274 147T319 294Q292 300 292 336Q292 377 323 389Q322 419 313 432T285 445Q252 445 220 396T170 283T152 169Q152 121 163 105T203 88ZM261 561L202 750H307L336 561H261Z" />
<glyph unicode="&#xf3;" glyph-name="oacute" horiz-adv-x="439" d="M277 505Q403 505 405 348Q409 347 416 347Q484 347 570 407L579 380Q520 317 403 297Q391 160 324 77T163 -6Q89 -6 46 32T3 152Q3 189 11 233T40 326T91 414T169 479T277 505ZM203 88Q240
88 274 147T319 294Q292 300 292 336Q292 377 323 389Q322 419 313 432T285 445Q252 445 220 396T170 283T152 169Q152 121 163 105T203 88ZM242 561L333 750H438L317 561H242Z" />
<glyph unicode="&#xf4;" glyph-name="ocircumflex" horiz-adv-x="439" d="M277 505Q403 505 405 348Q409 347 416 347Q484 347 570 407L579 380Q520 317 403 297Q391 160 324 77T163 -6Q89 -6 46 32T3 152Q3 189 11 233T40 326T91 414T169 479T277 505ZM203 88Q240
88 274 147T319 294Q292 300 292 336Q292 377 323 389Q322 419 313 432T285 445Q252 445 220 396T170 283T152 169Q152 121 163 105T203 88ZM411 561H379L319 641L162 561H118L330 750H351L411 561Z" />
<glyph unicode="&#xf5;" glyph-name="otilde" horiz-adv-x="439" d="M277 505Q403 505 405 348Q409 347 416 347Q484 347 570 407L579 380Q520 317 403 297Q391 160 324 77T163 -6Q89 -6 46 32T3 152Q3 189 11 233T40 326T91 414T169 479T277 505ZM203 88Q240
88 274 147T319 294Q292 300 292 336Q292 377 323 389Q322 419 313 432T285 445Q252 445 220 396T170 283T152 169Q152 121 163 105T203 88ZM458 670L464 669Q455 632 407 601T303 569Q269 569 215 587T135 606Q97 606 69 580L63 582Q112 680 230 680Q268 680 318
664T395 647Q437 647 458 670Z" />
<glyph unicode="&#xf6;" glyph-name="odieresis" horiz-adv-x="439" d="M277 505Q403 505 405 348Q409 347 416 347Q484 347 570 407L579 380Q520 317 403 297Q391 160 324 77T163 -6Q89 -6 46 32T3 152Q3 189 11 233T40 326T91 414T169 479T277 505ZM203 88Q240
88 274 147T319 294Q292 300 292 336Q292 377 323 389Q322 419 313 432T285 445Q252 445 220 396T170 283T152 169Q152 121 163 105T203 88ZM128 634Q128 659 146 677T189 695T232 677T250 634T232 591T189 573T146 590T128 634ZM308 634Q308 659 326 677T369 695T412
677T430 634T412 591T369 573T326 590T308 634Z" />
<glyph unicode="&#xf7;" glyph-name="divide" horiz-adv-x="415" d="M102 47T102 80T125 136T181 160T237 137T261 80T238 24T181 1T125 24ZM162 382T162 415T185 471T241 495T297 472T321 415T298 359T241 336T185 359ZM374 285L357 206H6L24 285H374Z" />
<glyph unicode="&#xf8;" glyph-name="oslash" horiz-adv-x="439" d="M187 -103H135L156 -6Q85 -4 44 34T3 152Q3 199 17 254T59 365T141 461T264 504L285 605H337L315 500Q402 479 405 357Q468 361 550 417H582Q560 385 510 353T403 306Q395 183 342 102T209 0L187
-103ZM203 88Q241 88 274 148T319 297Q289 303 289 343Q289 385 323 397Q320 423 312 434T285 445Q252 445 220 396T170 283T152 169Q152 121 163 105T203 88Z" />
<glyph unicode="&#xf9;" glyph-name="ugrave" horiz-adv-x="505" d="M332 500H476L404 160Q400 143 400 128Q400 108 409 100T441 91Q496 91 522 179H564Q499 -6 363 -6Q320 -6 294 18T264 89Q206 -6 116 -6Q68 -6 39 24T9 114Q9 141 17 179L85 500H229L157 160Q154
145 154 132Q154 91 184 91Q238 91 264 179L332 500ZM261 561L202 750H307L336 561H261Z" />
<glyph unicode="&#xfa;" glyph-name="uacute" horiz-adv-x="505" d="M332 500H476L404 160Q400 143 400 128Q400 108 409 100T441 91Q496 91 522 179H564Q499 -6 363 -6Q320 -6 294 18T264 89Q206 -6 116 -6Q68 -6 39 24T9 114Q9 141 17 179L85 500H229L157 160Q154
145 154 132Q154 91 184 91Q238 91 264 179L332 500ZM256 561L347 750H452L331 561H256Z" />
<glyph unicode="&#xfb;" glyph-name="ucircumflex" horiz-adv-x="505" d="M332 500H476L404 160Q400 143 400 128Q400 108 409 100T441 91Q496 91 522 179H564Q499 -6 363 -6Q320 -6 294 18T264 89Q206 -6 116 -6Q68 -6 39 24T9 114Q9 141 17 179L85 500H229L157
160Q154 145 154 132Q154 91 184 91Q238 91 264 179L332 500ZM436 561H404L344 641L187 561H143L355 750H376L436 561Z" />
<glyph unicode="&#xfc;" glyph-name="udieresis" horiz-adv-x="505" d="M332 500H476L404 160Q400 143 400 128Q400 108 409 100T441 91Q496 91 522 179H564Q499 -6 363 -6Q320 -6 294 18T264 89Q206 -6 116 -6Q68 -6 39 24T9 114Q9 141 17 179L85 500H229L157
160Q154 145 154 132Q154 91 184 91Q238 91 264 179L332 500ZM333 634Q333 659 351 677T394 695T437 677T455 634T437 591T394 573Q368 573 351 590T333 634ZM153 634Q153 659 171 677T214 695T257 677T275 634T257 591T214 573Q188 573 171 590T153 634Z" />
<glyph unicode="&#xfd;" glyph-name="yacute" horiz-adv-x="486" d="M332 500H476L377 36Q425 53 454 84T503 179H545Q531 132 511 97T465 42T417 10T368 -8L353 -80Q317 -250 173 -250Q125 -250 93 -225T61 -153Q61 -54 224 -4L236 50Q186 -6 116 -6Q68 -6 39
24T9 114Q9 141 17 179L85 500H229L157 160Q154 148 154 135Q154 91 184 91Q236 91 262 173L332 500ZM255 561L346 750H451L330 561H255ZM116 -139Q116 -151 125 -161T150 -172Q167 -172 183 -149T208 -83L214 -54Q116 -91 116 -139Z" />
<glyph unicode="&#xfe;" glyph-name="thorn" horiz-adv-x="473" d="M-75 -250L81 485Q93 539 93 578Q93 643 50 700H95Q134 678 158 659T201 601T221 508Q221 483 217 459Q268 505 338 505Q460 505 460 347Q460 303 454 258T429 165T385 79T314 18T214 -6Q147
-6 128 31L76 -214L-75 -250ZM183 81Q232 81 265 130T311 237T323 350Q323 433 273 433Q255 433 236 419T203 381L144 106Q152 81 183 81Z" />
<glyph unicode="&#xff;" glyph-name="ydieresis" horiz-adv-x="486" d="M332 500H476L377 36Q425 53 454 84T503 179H545Q531 132 511 97T465 42T417 10T368 -8L353 -80Q317 -250 173 -250Q125 -250 93 -225T61 -153Q61 -54 224 -4L236 50Q186 -6 116 -6Q68 -6
39 24T9 114Q9 141 17 179L85 500H229L157 160Q154 148 154 135Q154 91 184 91Q236 91 262 173L332 500ZM140 634Q140 659 158 677T201 695T244 677T262 634T244 591T201 573T158 590T140 634ZM320 634Q320 659 338 677T381 695T424 677T442 634T424 591T381 573T338
590T320 634ZM116 -139Q116 -151 125 -161T150 -172Q167 -172 183 -149T208 -83L214 -54Q116 -91 116 -139Z" />
</font>
</defs>
</svg>
